<svg id="Layer_1" data-name="Layer 1" xmlns="http://www.w3.org/2000/svg" viewBox="0 0 638 146.47"><title>Abstract Logo Vector</title><path d="M480.92,479.39c-8,0-15.05,3-20.07,10h0V453.31h-15V543.6h14v-9a22.83,22.83,0,0,0,19.06,10c16,0,26.09-12,26.09-33.11S496,479.39,480.92,479.39Zm-5,53.17c-9,0-15-8-15-21.07,0-12,6-20.06,15-20.06s14.05,8,14.05,21.07S484.93,532.56,475.9,532.56Z" transform="translate(-181 -426.77)"/><path d="M388.62,453.31,354.51,543.6h18.06l7-21.07h36.12l7,21.07h17.06l-33.11-90.29Zm-6,57.18c8-22.07,11-31.1,14-40.13,4,13,9,26.09,14,40.13Z" transform="translate(-181 -426.77)"/><path d="M750.78,533.57c-10,0-16-7-16-21.07h0c0-14.05,7-21.07,15-21.07,6,0,11,3,12,11l13-5a24.91,24.91,0,0,0-26.08-19.06c-19.07,0-31.1,13-31.1,34.11s12,34.11,30.09,34.11c12,1,23.08-7,27.09-18.06l-13-5C762.82,529.55,756.8,533.57,750.78,533.57Z" transform="translate(-181 -426.77)"/><path d="M709.65,526.54V503.47c0-10-1-15.05-5-19.06a22.17,22.17,0,0,0-19.06-6c-16.05,0-27.08,8-28.09,21.07l14,1a11.13,11.13,0,0,1,11-11h1a16.23,16.23,0,0,1,9,3,7.81,7.81,0,0,1,2,8v4c-10,0-19.06,2-29.09,5-7,3-12,9-12,17,0,11,8,19.06,20.06,19.06,8,0,16.06-3,21.07-9,1,6,6,9,14,9,2,0,5,0,7-1v-10C710.65,535.57,709.65,531.56,709.65,526.54Zm-14-9a17,17,0,0,1-3,10c-3,4-8,7-13.05,7-7,0-10-3-10-8,0-4,2-7,6-8,7-2,13-4,20.07-4Z" transform="translate(-181 -426.77)"/><path d="M551.14,498.45l11-8c-5-8-15-13-25.08-13-16.05,0-25.08,9-25.08,19.06s6,15,16.05,19.06l7,2c10,3,12,5,12,9s-4,7-10,7a17.88,17.88,0,0,1-16.05-10l-12,8c6,9,16,15.05,27.09,14,16,0,26.08-9,26.08-20.06,0-10-6-15-18.06-19.06l-6-2c-8-3-10-4-10-8s3-6,9-6h0C543.12,490.43,549.14,493.44,551.14,498.45Z" transform="translate(-181 -426.77)"/><path d="M812,533.57c-5,0-6-2-6-9V492.43h12v-12H806V459.33H790.91V480.4h-10v12h10v35.12c0,5,1,10,4,13a19.07,19.07,0,0,0,13,5c4,0,8-1,11-1v-12C816,532.56,814,533.57,812,533.57Z" transform="translate(-181 -426.77)"/><path d="M593.28,524.54V492.43h12v-12h-12V459.33h-15V480.4h-10v12h10v35.12c0,5,1,10,4,13a19.07,19.07,0,0,0,13,5c4,0,8-1,11-1v-12a12.65,12.65,0,0,1-6,1C595.28,533.57,593.28,530.56,593.28,524.54Z" transform="translate(-181 -426.77)"/><path d="M628.39,490.43v-10h-14v64.2h15V514.5a40.34,40.34,0,0,1,3-15c3-4,8-7,14.05-6a12.78,12.78,0,0,1,6,1v-14a12.67,12.67,0,0,0-6-1C638.42,479.39,631.4,483.4,628.39,490.43Z" transform="translate(-181 -426.77)"/><path d="M242.2,497a13.72,13.72,0,0,0-14,14.05v3c1,8,9,13.05,17.06,11a14.57,14.57,0,0,0,9-6c2-2,2-5,2-8,0-4-2-7-4-10A15.37,15.37,0,0,0,242.2,497Z" transform="translate(-181 -426.77)"/><path d="M254.23,426.77c-58.18,0-73.23,15-73.23,73.23s15.05,73.23,73.23,73.23,73.24-15,73.24-73.23S312.42,426.77,254.23,426.77Zm8,104.33c-9,9-24.08,11-35.11,4a23.36,23.36,0,0,1-10-12c-2-5-3-11-2-16.05a28.59,28.59,0,0,1,8-14,27.26,27.26,0,0,1,39.13,0c1,1,2,3,3,4,8,10,6,25.08-3,34.11Zm31.1,7H279.31v-64.2h-64.2V460.87h77.25v77.25Z" transform="translate(-181 -426.77)"/></svg>